<svg width="248" height="88" viewBox="0 0 248 88" fill="none" xmlns="http://www.w3.org/2000/svg">
<g clip-path="url(#clip0_35_367)">
<path d="M80.7793 29H68.5835V58.1667L80.7793 29Z" fill="#232323"/>
<path d="M89.3604 29H101.54V58.1667L89.3604 29Z" fill="#232323"/>
<path d="M85.07 39.75L92.8324 58.1669H87.7395L85.4196 52.3033H79.7388L85.07 39.75Z" fill="#232323"/>
<path d="M121.437 47.5479L122.875 51.6715C122.922 51.7747 122.994 51.8224 123.121 51.8224H125.886C126.037 51.8224 126.061 51.7509 126.037 51.6L120.324 35.7335C120.3 35.6064 120.277 35.5825 120.15 35.5825H116.717C116.622 35.5825 116.566 35.654 116.566 35.7573C116.519 36.5916 116.447 36.8458 116.344 37.0921L111.251 51.5761C111.227 51.7509 111.283 51.8224 111.426 51.8224H113.897C114.048 51.8224 114.119 51.7747 114.175 51.6238L115.533 47.5479H121.437ZM116.32 44.8545C117.067 42.5981 118.052 39.7061 118.449 38.0535H118.473C118.966 39.7855 120.126 43.2178 120.65 44.8545H116.32Z" fill="#232323"/>
<path d="M133.381 52.0689C134.867 52.0689 136.448 51.7988 138.053 51.1076C138.18 51.0599 138.204 51.0043 138.204 50.8851C138.156 50.4402 138.1 49.7966 138.1 49.304V34.3671C138.1 34.2718 138.1 34.2241 137.981 34.2241H135.288C135.185 34.2241 135.137 34.2718 135.137 34.3989V39.46C134.716 39.4123 134.422 39.3885 134.072 39.3885C129.726 39.3885 127.057 42.2567 127.057 45.8399C127.057 49.9953 129.798 52.0689 133.381 52.0689ZM135.137 49.304C134.692 49.447 134.199 49.5027 133.699 49.5027C131.728 49.5027 130.116 48.3903 130.116 45.689C130.116 43.2975 131.776 41.8833 133.977 41.8833C134.422 41.8833 134.811 41.9309 135.137 42.058V49.304Z" fill="#232323"/>
<path d="M146.796 39.3887C143.086 39.3887 140.79 42.233 140.79 45.7448C140.79 48.8831 142.617 52.0691 146.74 52.0691C150.228 52.0691 152.675 49.5029 152.675 45.6653C152.675 42.2807 150.602 39.3887 146.796 39.3887ZM146.645 41.8835C148.743 41.8835 149.633 43.687 149.633 45.7448C149.633 48.2872 148.322 49.5505 146.796 49.5505C144.913 49.5505 143.801 47.9694 143.801 45.6892C143.801 43.3454 144.985 41.8835 146.645 41.8835Z" fill="#232323"/>
<path d="M155.46 34.2241C155.357 34.2241 155.285 34.2718 155.285 34.3989V51.3062C155.285 51.3777 155.357 51.5048 155.46 51.5287C156.644 51.8941 157.883 52.0689 159.162 52.0689C162.825 52.0689 166.385 49.7966 166.385 45.2202C166.385 41.9071 164.112 39.3885 160.553 39.3885C159.734 39.3885 158.972 39.5156 158.304 39.7381L158.273 34.4227C158.273 34.248 158.225 34.2241 158.05 34.2241H155.46ZM163.342 45.5221C163.342 48.2632 161.466 49.5503 159.44 49.5503C159.019 49.5503 158.646 49.5265 158.304 49.4232V42.209C158.694 42.058 159.162 41.9309 160.028 41.9309C161.983 41.9309 163.342 43.1704 163.342 45.5221Z" fill="#232323"/>
<path d="M176.436 46.4122C177.644 46.4122 178.637 46.3884 178.979 46.3089C179.106 46.2851 179.154 46.2374 179.177 46.1341C179.249 45.864 179.281 45.2999 179.281 44.6086C179.281 42.2569 177.866 39.3887 174.212 39.3887C170.477 39.3887 168.404 42.4317 168.404 45.864C168.404 48.907 170.009 52.0691 174.506 52.0691C176.19 52.0691 177.279 51.799 178.216 51.3541C178.311 51.3064 178.359 51.227 178.359 51.0839V49.0261C178.359 48.907 178.288 48.8831 178.216 48.9308C177.279 49.3281 176.262 49.5267 175.149 49.5267C172.631 49.5267 171.487 48.1363 171.415 46.4122H176.436ZM171.415 44.2829C171.614 43.0752 172.376 41.7643 174.085 41.7643C175.968 41.7643 176.46 43.3454 176.46 44.0604C176.46 44.0843 176.46 44.1875 176.46 44.2591C176.357 44.2829 176.039 44.2829 175.102 44.2829H171.415Z" fill="#232323"/>
</g>
<defs>
<clipPath id="clip0_35_367">
<rect width="110.833" height="40" fill="white" transform="translate(68.5835 24)"/>
</clipPath>
</defs>
</svg>
