<svg width="248" height="88" viewBox="0 0 248 88" fill="none" xmlns="http://www.w3.org/2000/svg">
<g clip-path="url(#clip0_35_391)">
<path d="M55.2064 42.3611C55.1526 42.2907 55.0815 42.2353 55 42.2004C54.9186 42.1655 54.8294 42.1521 54.7413 42.1617C54.6532 42.1713 54.569 42.2034 54.4969 42.255C54.4248 42.3067 54.3673 42.376 54.3299 42.4564L49.8881 51.3372C49.8476 51.4181 49.8285 51.508 49.8326 51.5984C49.8366 51.6888 49.8637 51.7767 49.9113 51.8537C49.9589 51.9306 50.0253 51.9942 50.1044 52.0382C50.1834 52.0823 50.2724 52.1055 50.3629 52.1055H56.5478C56.6469 52.1078 56.7445 52.0813 56.8288 52.0292C56.9131 51.9771 56.9804 51.9016 57.0226 51.812C58.3568 49.055 57.5483 44.8632 55.2064 42.3611Z" fill="#232323"/>
<path d="M58.4643 34.2839C57.3576 35.9869 56.7126 37.9483 56.5927 39.9758C56.4728 42.0033 56.8821 44.0271 57.7805 45.8486L60.7623 51.8123C60.8064 51.9005 60.8741 51.9746 60.958 52.0265C61.0419 52.0783 61.1385 52.1058 61.2371 52.1058H67.421C67.5114 52.1058 67.6004 52.0826 67.6795 52.0386C67.7585 51.9945 67.8249 51.931 67.8725 51.854C67.9201 51.777 67.9472 51.6892 67.9513 51.5988C67.9553 51.5084 67.9362 51.4184 67.8958 51.3375C67.8958 51.3375 59.5764 34.6968 59.3673 34.2806C59.326 34.1959 59.2616 34.1245 59.1815 34.0747C59.1015 34.0249 59.009 33.9987 58.9148 33.999C58.8205 33.9994 58.7282 34.0263 58.6486 34.0767C58.5689 34.1271 58.5051 34.1989 58.4643 34.2839Z" fill="#232323"/>
<path d="M130.998 41.4043C130.998 43.6034 132.018 45.3494 136.009 46.1201C138.389 46.6199 138.888 47.0042 138.888 47.7978C138.888 48.5686 138.388 49.0676 136.711 49.0676C134.685 49.0311 132.699 48.4937 130.93 47.5032V51.0851C132.132 51.6745 133.719 52.332 136.666 52.332C140.838 52.332 142.493 50.4717 142.493 47.707L130.998 41.4043ZM142.493 47.707C142.493 45.0997 141.11 43.8752 137.21 43.0367C135.057 42.5605 134.535 42.0846 134.535 41.4043C134.535 40.5435 135.306 40.1801 136.734 40.1801C138.457 40.1801 140.158 40.7015 141.767 41.4271V38.0035C140.224 37.301 138.543 36.9524 136.847 36.9833C132.993 36.9833 130.998 38.661 130.998 41.4043" fill="#232323"/>
<path d="M184.592 37.21V52.1055H187.766V40.7468L189.104 43.762L193.593 52.1055H197.583V37.21H194.409V46.823L193.207 44.0341L189.602 37.21H184.592Z" fill="#232323"/>
<path d="M164.404 37.21H160.936V52.1055H164.404V37.21Z" fill="#232323"/>
<path d="M156.933 47.707C156.933 45.0997 155.55 43.8752 151.65 43.0367C149.496 42.5605 148.975 42.0846 148.975 41.4043C148.975 40.5435 149.746 40.1801 151.174 40.1801C152.897 40.1801 154.598 40.7015 156.207 41.4271V38.0035C154.664 37.301 152.983 36.9524 151.287 36.9833C147.433 36.9833 145.438 38.661 145.438 41.4043C145.438 43.6034 146.458 45.3494 150.449 46.1201C152.829 46.6199 153.328 47.0042 153.328 47.7978C153.328 48.5686 152.828 49.0676 151.151 49.0676C149.125 49.0311 147.139 48.4937 145.37 47.5032V51.0851C146.572 51.6745 148.159 52.332 151.106 52.332C155.278 52.332 156.933 50.4717 156.933 47.707Z" fill="#232323"/>
<path d="M104.05 37.21V52.1055H111.18L112.303 48.886H107.542V37.21H104.05Z" fill="#232323"/>
<path d="M89.9644 37.21V40.4292H93.8186V52.1055H97.31V40.4292H101.436V37.21H89.9644Z" fill="#232323"/>
<path d="M84.9017 37.21H80.3261L75.1318 52.1055H79.0985L79.8349 49.5968C81.6485 50.1294 83.5769 50.1294 85.3904 49.5968L86.1268 52.1055H90.0943L84.9017 37.21ZM82.6138 46.9107C81.9676 46.9107 81.3248 46.8182 80.7048 46.6361L82.6138 40.1357L84.5227 46.6383C83.9026 46.8197 83.2598 46.9114 82.6138 46.9107Z" fill="#232323"/>
<path d="M123.472 37.21H118.897L113.703 52.1055H117.67L118.407 49.5968C120.22 50.1294 122.148 50.1294 123.962 49.5968L124.698 52.1055H128.666L123.472 37.21ZM121.185 46.9107C120.538 46.9107 119.896 46.8182 119.276 46.6361L121.185 40.1357L123.094 46.6383C122.473 46.8197 121.831 46.9114 121.185 46.9107Z" fill="#232323"/>
<path d="M176.904 37.21H172.329L167.134 52.1055H171.102L171.838 49.5968C173.652 50.1294 175.58 50.1294 177.394 49.5968L178.13 52.1055H182.098L176.904 37.21ZM174.615 46.9107C173.969 46.9107 173.326 46.8182 172.706 46.6361L174.615 40.1357L176.524 46.6383C175.904 46.8197 175.261 46.9114 174.615 46.9107Z" fill="#232323"/>
</g>
<defs>
<clipPath id="clip0_35_391">
<rect width="148.333" height="40" fill="white" transform="translate(49.8335 24)"/>
</clipPath>
</defs>
</svg>
