<svg width="248" height="88" viewBox="0 0 248 88" fill="none" xmlns="http://www.w3.org/2000/svg">
<g clip-path="url(#clip0_35_377)">
<path d="M153.611 39.5189C155.62 37.484 157.846 38.0825 157.846 40.0562C157.846 41.9826 155.565 44.0621 152.814 45.674C152.548 45.8271 152.232 46.0052 151.913 46.1639C151.806 45.6795 151.745 45.1422 151.745 44.5437C151.745 42.8985 152.435 40.7104 153.611 39.5189ZM142.897 60.2918C140.229 62.9949 136.819 59.5485 140.798 55.5175C141.699 54.6044 143.177 53.5995 144.716 52.6836C145.593 54.8884 144.897 58.2568 142.897 60.2918ZM125.901 49.4683C123.854 49.4683 122.53 46.9823 122.939 43.9118C123.34 40.8412 125.327 38.3553 127.371 38.3553C129.265 38.3553 130.54 40.4905 130.394 43.2465C130.342 43.6445 130.295 44.0287 130.257 44.399C129.718 47.2357 127.833 49.4683 125.901 49.4683ZM98.8783 48.4466C98.2105 49.1231 97.3944 49.4822 96.5673 49.4822C95.7951 49.4822 95.1274 49.1287 94.575 48.5691C92.6817 46.6511 92.8466 41.9436 95.2785 39.4716C95.9682 38.7729 96.8008 38.3664 97.6582 38.3664C98.4249 38.3664 99.0981 38.7116 99.6504 39.2712C101.434 41.0779 101.538 45.7519 98.8783 48.4466ZM162.226 49.4516C162.226 49.4516 161.467 48.377 161.234 48.0708C161.074 47.8704 160.877 47.6254 160.354 47.9873C159.203 48.7696 157.906 49.485 156.307 49.485C155.087 49.485 154.018 49.1704 153.224 48.4884C153.556 48.3353 153.905 48.1655 154.262 47.9734C156.15 46.9378 157.725 45.6238 158.483 44.8555C162.157 41.1335 161.006 35.5826 156.529 35.5826C152.3 35.5826 148.959 39.7583 148.959 44.3962C148.959 45.0949 149.041 46.0915 149.338 47.1522C149.088 47.2746 147.415 48.0959 145.406 49.2178C143.518 47.7813 140.572 48.4271 140.572 48.4271C143.306 44.4964 147.423 38.3553 147.772 37.8486C148.022 37.4867 147.983 37.1276 147.742 36.5597C147.431 35.8777 147.121 35.7524 146.695 35.7524H138.149C137.868 35.7524 137.649 35.8833 137.566 36.2062C137.489 36.5207 137.308 37.6176 137.278 37.9934C137.239 38.3692 137.588 38.6003 137.951 38.6003H144.142L138.542 46.7151C138.503 46.7457 138.465 46.7847 138.434 46.8376C137.624 48.0263 136.373 49.6938 134.873 49.6938C133.942 49.6938 132.79 49.0173 132.79 46.807C132.79 44.6412 133.653 40.0673 134.282 36.504C134.351 36.1199 134.222 35.7441 133.615 35.7441H132.1C131.751 35.7441 131.554 35.9584 131.501 36.2591C131.411 36.8047 131.32 37.342 131.229 37.857C130.479 36.4066 129.281 35.5854 127.547 35.5854C125.94 35.5854 124.373 36.1923 123.093 37.4812C119.894 40.7215 120.502 46.0024 117.743 48.7974C116.553 50.0028 115.204 49.6353 115.204 47.2635C115.204 44.5549 116.226 41.5372 117.402 38.6726C117.605 38.166 117.385 37.7428 117.168 37.4144C116.858 36.955 116.737 36.7073 116.176 36.7073C115.305 36.7073 113.912 37.2668 111.123 37.2668C110.532 37.2668 109.963 37.2445 109.455 37.2056C109.485 36.7824 109.493 36.4985 109.502 36.3927C109.518 35.9946 109.381 35.7413 108.963 35.7413H107.54C107.023 35.7413 106.897 35.9863 106.836 36.3927C106.594 38.1187 106.133 44.4602 102.995 47.6393C102.632 48.0068 102.412 48.1237 102.412 48.1237C103.192 46.5731 103.616 44.5382 103.616 42.9263C103.616 38.3887 100.964 35.5798 97.6362 35.5798C96.6195 35.5798 95.545 35.9111 94.5366 36.5458C95.0065 33.7815 95.4379 31.1953 95.589 30.3212C95.7182 29.5835 95.4516 29.1993 95.262 28.8931C94.9405 28.3892 94.6575 28.1665 94.2343 28.1665H89.3238C89.0435 28.1665 88.8319 28.3669 88.7632 28.6815C88.6808 29.049 88.5049 30.0177 88.4829 30.4632C88.4664 30.8557 88.733 31.0004 89.0435 31.0004H92.635C92.058 34.5693 90.967 41.4871 90.6345 43.2214C90.2196 45.4318 88.6643 48.1404 86.051 49.1008C85.724 49.2233 85.5894 49.524 85.7103 49.8775C85.8312 50.2311 86.2791 51.1525 86.4137 51.3891C86.5511 51.6341 86.8534 51.7956 87.1419 51.6954C88.4994 51.211 89.7415 50.4287 90.7252 49.4377C90.967 49.1927 91.2034 48.9143 91.4287 48.6164C92.602 51.2889 94.99 52.2633 97.4384 52.2633C100.203 52.2633 103.19 51.2889 105.281 49.1621C107.729 46.69 108.751 42.5923 109.183 39.6887C109.79 39.7723 110.48 39.8418 111.137 39.8418C112.818 39.8418 114.228 39.4799 114.228 39.4799C114.228 39.4799 112.533 44.0398 112.533 47.4027C112.533 51.1943 114.322 52.2688 116.306 52.2688C118.344 52.2688 119.776 50.7182 120.798 48.8002C121.065 49.3987 121.458 50.1141 121.996 50.657C122.92 51.5924 124.066 52.2688 125.717 52.2688C127.605 52.2688 129.226 51.1636 130.378 49.4683C130.581 50.181 130.9 50.7823 131.331 51.2193C131.914 51.8095 132.983 52.2716 134.324 52.2716C136.626 52.2716 137.962 50.5206 141.545 50.5206C141.998 50.5206 142.408 50.5902 142.779 50.721C141.136 51.7343 139.575 52.8256 138.619 53.7916C135.665 56.7842 135.527 60.7233 137.467 62.6887C139.817 65.0688 143.166 63.8773 145.257 61.7589C147.706 59.2785 148.418 54.5905 147 51.3808C148.712 50.4677 150.143 49.7912 150.484 49.6298C151.553 51.1108 153.325 52.2716 156.249 52.2716C158.34 52.2716 160.448 51.52 162.091 50.2617C162.355 50.0835 162.407 49.7133 162.226 49.4516Z" fill="#232323"/>
</g>
<defs>
<clipPath id="clip0_35_377">
<rect width="76.6667" height="40" fill="white" transform="translate(85.6665 24)"/>
</clipPath>
</defs>
</svg>
