<svg width="20" height="20" viewBox="0 0 20 20" fill="none" xmlns="http://www.w3.org/2000/svg">
<path d="M18.082 0.133301H1.62097C0.832439 0.133301 0.194824 0.755824 0.194824 1.52549V18.0544C0.194824 18.8241 0.832439 19.4504 1.62097 19.4504H18.082C18.8705 19.4504 19.5119 18.8241 19.5119 18.0582V1.52549C19.5119 0.755824 18.8705 0.133301 18.082 0.133301ZM5.92581 16.5943H3.05843V7.37343H5.92581V16.5943ZM4.49212 6.11707C3.57154 6.11707 2.82828 5.37381 2.82828 4.45701C2.82828 3.5402 3.57154 2.79694 4.49212 2.79694C5.40893 2.79694 6.15218 3.5402 6.15218 4.45701C6.15218 5.37004 5.40893 6.11707 4.49212 6.11707ZM16.6558 16.5943H13.7922V12.1122C13.7922 11.0444 13.7734 9.66733 12.302 9.66733C10.8117 9.66733 10.5853 10.8331 10.5853 12.0367V16.5943H7.72547V7.37343H10.4721V8.63357H10.5098C10.8909 7.90918 11.8266 7.14329 13.2188 7.14329C16.1201 7.14329 16.6558 9.05236 16.6558 11.5349V16.5943Z" fill="#222222"/>
</svg>
