<svg width="20" height="20" viewBox="0 0 20 20" fill="none" xmlns="http://www.w3.org/2000/svg">
<g clip-path="url(#clip0_35_2109)">
<path fill-rule="evenodd" clip-rule="evenodd" d="M10.2196 0.134277C4.88516 0.134277 0.561035 4.46517 0.561035 9.80923C0.561035 14.0831 3.32821 17.7099 7.16651 18.9887C7.64944 19.0776 7.82522 18.7791 7.82522 18.5222C7.82522 18.2933 7.81749 17.6838 7.81266 16.8773C5.12566 17.4617 4.5587 15.5802 4.5587 15.5802C4.12021 14.4618 3.48661 14.1643 3.48661 14.1643C2.60961 13.5654 3.55325 13.577 3.55325 13.577C4.522 13.6446 5.03197 14.5738 5.03197 14.5738C5.89351 16.0515 7.29304 15.6246 7.84261 15.3774C7.93146 14.7525 8.18066 14.3265 8.45689 14.0851C6.31269 13.8407 4.05743 13.0101 4.05743 9.30313C4.05743 8.24745 4.43411 7.38301 5.05129 6.70691C4.95181 6.46255 4.62052 5.47835 5.14594 4.1474C5.14594 4.1474 5.95726 3.88662 7.80204 5.13837C8.58995 4.92348 9.40288 4.81402 10.2196 4.81287C11.0405 4.81674 11.8664 4.92395 12.6381 5.13837C14.4819 3.88662 15.2913 4.14643 15.2913 4.14643C15.8186 5.47835 15.4864 6.46255 15.3879 6.70691C16.006 7.38301 16.3808 8.24745 16.3808 9.30313C16.3808 13.0197 14.1216 13.8378 11.9707 14.0773C12.3174 14.3758 12.6255 14.9659 12.6255 15.869C12.6255 17.1613 12.6139 18.2054 12.6139 18.5222C12.6139 18.781 12.7878 19.0824 13.2784 18.9877C15.2017 18.3427 16.8737 17.1095 18.0579 15.4624C19.2422 13.8154 19.8789 11.8378 19.8781 9.80923C19.8781 4.46517 15.553 0.134277 10.2196 0.134277Z" fill="#222222"/>
</g>
<defs>
<clipPath id="clip0_35_2109">
<rect width="19.3171" height="19.3171" fill="white" transform="translate(0.561035 0.134277)"/>
</clipPath>
</defs>
</svg>
