<svg width="21" height="20" viewBox="0 0 21 20" fill="none" xmlns="http://www.w3.org/2000/svg">
<g clip-path="url(#clip0_35_2107)">
<path d="M20.2438 9.79281C20.2438 4.45855 15.9196 0.134277 10.5853 0.134277C5.25103 0.134277 0.926758 4.45855 0.926758 9.79281C0.926758 14.6136 4.45873 18.6094 9.07615 19.334V12.5847H6.62379V9.79281H9.07615V7.66492C9.07615 5.24425 10.5181 3.90714 12.7243 3.90714C13.7807 3.90714 14.8864 4.09579 14.8864 4.09579V6.47269H13.6685C12.4687 6.47269 12.0944 7.21727 12.0944 7.98184V9.79281H14.7732L14.345 12.5847H12.0944V19.334C16.7119 18.6094 20.2438 14.6136 20.2438 9.79281Z" fill="#222222"/>
</g>
<defs>
<clipPath id="clip0_35_2107">
<rect width="19.3171" height="19.3171" fill="white" transform="translate(0.926758 0.134277)"/>
</clipPath>
</defs>
</svg>
