<svg width="20" height="21" viewBox="0 0 20 21" fill="none" xmlns="http://www.w3.org/2000/svg">
<path d="M4.35205 8.68701H5.98486C7.61768 8.68701 8.43408 7.87061 8.43408 6.23779V4.60498C8.43408 2.97217 7.61768 2.15576 5.98486 2.15576H4.35205C2.71924 2.15576 1.90283 2.97217 1.90283 4.60498V6.23779C1.90283 7.87061 2.71924 8.68701 4.35205 8.68701Z" stroke="#566A7F" stroke-width="1.22461" stroke-miterlimit="10" stroke-linecap="round" stroke-linejoin="round"/>
<path d="M14.1479 8.68701H15.7808C17.4136 8.68701 18.23 7.87061 18.23 6.23779V4.60498C18.23 2.97217 17.4136 2.15576 15.7808 2.15576H14.1479C12.5151 2.15576 11.6987 2.97217 11.6987 4.60498V6.23779C11.6987 7.87061 12.5151 8.68701 14.1479 8.68701Z" stroke="#566A7F" stroke-width="1.22461" stroke-miterlimit="10" stroke-linecap="round" stroke-linejoin="round"/>
<path d="M14.1479 18.4839H15.7808C17.4136 18.4839 18.23 17.6675 18.23 16.0347V14.4019C18.23 12.769 17.4136 11.9526 15.7808 11.9526H14.1479C12.5151 11.9526 11.6987 12.769 11.6987 14.4019V16.0347C11.6987 17.6675 12.5151 18.4839 14.1479 18.4839Z" stroke="#566A7F" stroke-width="1.22461" stroke-miterlimit="10" stroke-linecap="round" stroke-linejoin="round"/>
<path d="M4.35205 18.4839H5.98486C7.61768 18.4839 8.43408 17.6675 8.43408 16.0347V14.4019C8.43408 12.769 7.61768 11.9526 5.98486 11.9526H4.35205C2.71924 11.9526 1.90283 12.769 1.90283 14.4019V16.0347C1.90283 17.6675 2.71924 18.4839 4.35205 18.4839Z" stroke="#566A7F" stroke-width="1.22461" stroke-miterlimit="10" stroke-linecap="round" stroke-linejoin="round"/>
</svg>
