<svg width="248" height="88" viewBox="0 0 248 88" fill="none" xmlns="http://www.w3.org/2000/svg">
<g clip-path="url(#clip0_35_387)">
<path d="M86.5772 49.7319H80.7163V52.6625H86.5772V49.7319Z" fill="#232323"/>
<path d="M95.366 49.7319H89.5088V52.6625H95.366V49.7319Z" fill="#232323"/>
<path d="M95.3676 43.871H80.7129V46.8016H95.3676V43.871Z" fill="#232323"/>
<path d="M89.5085 38.0105H80.7163V40.9409H89.5085V38.0105Z" fill="#232323"/>
<path d="M95.3691 38.0105H92.4387V40.9409H95.3691V38.0105Z" fill="#232323"/>
<path d="M137.912 37.9938C133.205 37.9938 130.774 41.3221 130.774 45.4277C130.774 49.5335 133.145 52.862 137.912 52.862C142.678 52.862 145.049 49.5335 145.049 45.4277C145.049 41.3221 142.618 37.9938 137.912 37.9938ZM141.472 45.441C141.469 48.0811 140.579 50.2195 137.912 50.2195C135.244 50.2195 134.354 48.0813 134.351 45.441V45.4278C134.354 42.7879 135.244 40.6497 137.912 40.6497C140.579 40.6497 141.469 42.7879 141.472 45.4278V45.4345C141.472 45.4367 141.472 45.4388 141.472 45.441Z" fill="#232323"/>
<path d="M116.838 52.6622V32.1086C116.838 32.1086 119.549 31.7236 119.759 31.6953C119.997 31.6631 120.314 31.8326 120.314 32.1678V39.7871C120.876 39.2522 121.496 38.8211 122.171 38.4926C122.847 38.1644 123.639 38.0001 124.549 38.0001C125.337 38.0001 126.036 38.1338 126.645 38.4013C127.255 38.6682 127.764 39.0439 128.172 39.5266C128.58 40.01 128.89 40.5868 129.101 41.2575C129.312 41.9282 129.418 42.667 129.418 43.4737V52.662H125.942V43.4737C125.942 42.5921 125.738 41.9096 125.33 41.4261C124.922 40.9432 124.31 40.7016 123.493 40.7016C122.893 40.7016 122.33 40.8377 121.805 41.11C121.28 41.3821 120.783 41.7522 120.314 42.2216V52.6622H116.838Z" fill="#232323"/>
<path d="M163.237 52.8601C160.846 52.8601 159.347 51.4682 159.347 48.8715V41.1758H156.651C156.651 41.1758 157.224 39.1943 157.269 39.0383C157.315 38.8824 157.433 38.7149 157.671 38.6818C157.909 38.6488 159.343 38.4487 159.343 38.4487L160.006 34.2348C160.006 34.2348 161.952 33.9604 162.26 33.9144C162.552 33.8708 162.816 34.0806 162.816 34.398V38.4487H166.225V41.1758H162.816V48.7678C162.816 49.8044 163.447 50.2006 164.052 50.2006C164.422 50.2006 164.928 50.0042 165.306 49.829C165.539 49.721 165.901 49.8011 165.995 50.127C166.077 50.4158 166.517 51.9485 166.517 51.9485C166.138 52.1933 164.939 52.8601 163.237 52.8601Z" fill="#232323"/>
<path d="M154.742 41.2217C154.065 41.0017 152.792 40.6495 151.581 40.6495C150.347 40.6495 149.376 41.0758 149.376 42.1019C149.376 43.3834 151.468 43.7565 152.901 44.2789C153.858 44.6281 156.426 45.309 156.426 48.071C156.426 51.426 153.64 52.8604 150.668 52.8604C147.695 52.8604 145.939 51.7549 145.939 51.7549C145.939 51.7549 146.4 50.1262 146.494 49.8047C146.578 49.5154 146.914 49.4139 147.129 49.4961C147.894 49.791 149.275 50.2009 150.836 50.2009C152.417 50.2009 153.182 49.7182 153.182 48.6892C153.182 47.3197 151.047 46.9011 149.636 46.4558C148.663 46.1492 146.089 45.4343 146.089 42.3967C146.089 39.4044 148.716 38.0005 151.524 38.0005C153.901 38.0005 155.067 38.4976 155.938 38.9413C155.938 38.9413 155.453 40.6327 155.381 40.8847C155.296 41.1842 155.05 41.3215 154.742 41.2217Z" fill="#232323"/>
<path d="M115.482 38.4959C115.482 38.1722 115.206 37.9869 114.942 38.0171C113.775 38.1507 112.943 38.6996 112.405 39.2106C111.348 38.3824 109.88 37.9869 108.234 37.9869C104.932 37.9869 102.352 39.5805 102.352 43.0553C102.352 45.0501 103.201 46.4246 104.55 47.2338C103.548 47.7078 102.881 48.7137 102.881 49.7026C102.881 51.3568 104.188 51.8748 104.188 51.8748C104.188 51.8748 101.903 52.9838 101.903 55.2026C101.903 58.043 104.517 59.1914 107.711 59.1914C112.315 59.1914 115.483 57.2898 115.483 53.7982C115.483 51.6492 113.838 50.4629 110.255 50.3219C108.128 50.2379 106.751 50.1614 106.409 50.0484C105.958 49.8987 105.737 49.5377 105.737 49.1391C105.737 48.6991 106.098 48.2802 106.668 47.9925C107.165 48.0805 107.689 48.1239 108.234 48.1239C111.539 48.1239 114.116 46.535 114.116 43.0555C114.116 42.2118 113.963 41.4793 113.686 40.8535C114.172 40.5945 114.769 40.4123 115.482 40.4123C115.482 40.4123 115.482 38.7911 115.482 38.4959ZM106.383 52.6805C106.383 52.6805 108.117 52.7461 109.849 52.8263C111.796 52.9163 112.403 53.3358 112.403 54.3437C112.403 55.5752 110.711 56.7729 108.347 56.7729C106.103 56.7729 104.982 55.9922 104.982 54.6924C104.982 53.9466 105.376 53.1123 106.383 52.6805ZM108.24 45.6984C106.676 45.6984 105.455 44.8676 105.455 43.0553C105.455 41.2429 106.677 40.4121 108.24 40.4121C109.803 40.4121 111.024 41.2407 111.024 43.0553C111.024 44.87 109.805 45.6984 108.24 45.6984Z" fill="#232323"/>
</g>
<defs>
<clipPath id="clip0_35_387">
<rect width="86.6667" height="40" fill="white" transform="translate(80.6665 24)"/>
</clipPath>
</defs>
</svg>
