<svg width="255" height="49" viewBox="0 0 255 49" fill="none" xmlns="http://www.w3.org/2000/svg">
<g filter="url(#filter0_d_35_440)">
<path d="M47.0498 29.4619V9.71939H49.641L56.7977 24.5674L63.9132 9.71939H66.5318V29.4482H63.8172V15.9438L57.442 29.4619H56.1396L49.7507 15.9438V29.4619H47.0498ZM76.436 29.8732C74.9644 29.8732 73.6711 29.5533 72.556 28.9135C71.4501 28.2646 70.5864 27.3643 69.9648 26.2126C69.3524 25.0518 69.0463 23.7082 69.0463 22.1819C69.0463 20.5641 69.3479 19.1611 69.9511 17.9729C70.5635 16.7847 71.4135 15.8661 72.5012 15.2171C73.5889 14.5682 74.8548 14.2437 76.2989 14.2437C77.807 14.2437 79.0912 14.5956 80.1514 15.2994C81.2117 15.994 82.0023 16.9857 82.5233 18.2745C83.0534 19.5632 83.2636 21.0942 83.1539 22.8674H80.2885V21.8254C80.2702 20.1071 79.9412 18.8366 79.3014 18.014C78.6707 17.1914 77.7065 16.7801 76.4086 16.7801C74.9736 16.7801 73.8951 17.2325 73.173 18.1374C72.4509 19.0422 72.0899 20.3493 72.0899 22.0585C72.0899 23.6854 72.4509 24.9467 73.173 25.8425C73.8951 26.729 74.937 27.1723 76.2989 27.1723C77.1946 27.1723 77.967 26.9712 78.6159 26.5691C79.274 26.1578 79.7858 25.5728 80.1514 24.8142L82.962 25.7054C82.3862 27.0307 81.5133 28.0589 80.3434 28.7901C79.1734 29.5122 77.871 29.8732 76.436 29.8732ZM71.1576 22.8674V20.6326H81.7281V22.8674H71.1576ZM95.7164 29.4619V22.1819C95.7164 21.606 95.6661 21.0165 95.5656 20.4133C95.4742 19.8009 95.2914 19.2342 95.0172 18.7132C94.7521 18.1922 94.3728 17.7718 93.8792 17.4519C93.3948 17.132 92.7596 16.972 91.9735 16.972C91.4617 16.972 90.9772 17.0589 90.5202 17.2325C90.0632 17.397 89.6611 17.6667 89.3138 18.0414C88.9756 18.4162 88.7059 18.9097 88.5049 19.5221C88.3129 20.1345 88.217 20.8794 88.217 21.7568L86.4346 21.0851C86.4346 19.7415 86.686 18.5578 87.1887 17.5341C87.6914 16.5013 88.4135 15.697 89.3549 15.1212C90.2963 14.5453 91.4343 14.2574 92.7687 14.2574C93.7924 14.2574 94.6516 14.4219 95.3462 14.751C96.0408 15.08 96.603 15.5142 97.0325 16.0535C97.4713 16.5836 97.8049 17.164 98.0334 17.7946C98.2619 18.4253 98.4173 19.0422 98.4995 19.6455C98.5818 20.2487 98.6229 20.7789 98.6229 21.2359V29.4619H95.7164ZM85.3104 29.4619V14.655H87.8742V18.9326H88.217V29.4619H85.3104ZM110.163 29.4619C109.23 29.6447 108.316 29.7224 107.421 29.695C106.525 29.6676 105.725 29.4939 105.021 29.174C104.318 28.8541 103.787 28.3514 103.431 27.6659C103.111 27.0535 102.937 26.432 102.91 25.8013C102.892 25.1615 102.883 24.4395 102.883 23.6351V10.542H105.762V23.498C105.762 24.0921 105.766 24.6085 105.775 25.0473C105.794 25.486 105.89 25.8562 106.063 26.1578C106.392 26.7245 106.913 27.0489 107.626 27.1312C108.348 27.2043 109.194 27.1723 110.163 27.0352V29.4619ZM100.045 16.9583V14.655H110.163V16.9583H100.045ZM118.541 29.8732C117.06 29.8732 115.776 29.5396 114.688 28.8724C113.601 28.2052 112.76 27.2866 112.166 26.1167C111.581 24.9376 111.288 23.5803 111.288 22.0448C111.288 20.5001 111.59 19.1428 112.193 17.9729C112.796 16.7938 113.642 15.8798 114.73 15.2308C115.817 14.5728 117.088 14.2437 118.541 14.2437C120.022 14.2437 121.306 14.5773 122.393 15.2446C123.481 15.9118 124.322 16.8304 124.916 18.0003C125.51 19.1702 125.807 20.5184 125.807 22.0448C125.807 23.5894 125.506 24.9513 124.902 26.1304C124.308 27.3003 123.467 28.2189 122.38 28.8861C121.292 29.5442 120.012 29.8732 118.541 29.8732ZM118.541 27.1723C119.958 27.1723 121.013 26.697 121.708 25.7465C122.412 24.7868 122.764 23.5529 122.764 22.0448C122.764 20.5001 122.407 19.2662 121.694 18.343C120.99 17.4107 119.939 16.9446 118.541 16.9446C117.581 16.9446 116.791 17.164 116.169 17.6027C115.548 18.0323 115.086 18.6309 114.784 19.3987C114.483 20.1573 114.332 21.0394 114.332 22.0448C114.332 23.5986 114.688 24.8416 115.401 25.7739C116.114 26.7062 117.161 27.1723 118.541 27.1723ZM128.316 29.4619V14.655H130.866V18.2471L130.51 17.7809C130.692 17.3056 130.93 16.8715 131.222 16.4785C131.515 16.0763 131.853 15.7473 132.237 15.4913C132.612 15.2171 133.028 15.0069 133.485 14.8607C133.951 14.7053 134.426 14.6139 134.911 14.5865C135.395 14.5499 135.861 14.5728 136.309 14.655V17.3422C135.825 17.2142 135.285 17.1777 134.691 17.2325C134.106 17.2874 133.567 17.4747 133.073 17.7946C132.607 18.0963 132.237 18.4619 131.963 18.8914C131.698 19.321 131.506 19.8009 131.387 20.331C131.268 20.852 131.209 21.405 131.209 21.9899V29.4619H128.316ZM148.323 29.4619V12.4203H141.756V9.71939H157.755V12.4203H151.188V29.4619H148.323ZM163.68 29.8732C162.199 29.8732 160.915 29.5396 159.827 28.8724C158.739 28.2052 157.899 27.2866 157.304 26.1167C156.719 24.9376 156.427 23.5803 156.427 22.0448C156.427 20.5001 156.729 19.1428 157.332 17.9729C157.935 16.7938 158.781 15.8798 159.868 15.2308C160.956 14.5728 162.226 14.2437 163.68 14.2437C165.16 14.2437 166.444 14.5773 167.532 15.2446C168.62 15.9118 169.461 16.8304 170.055 18.0003C170.649 19.1702 170.946 20.5184 170.946 22.0448C170.946 23.5894 170.644 24.9513 170.041 26.1304C169.447 27.3003 168.606 28.2189 167.518 28.8861C166.431 29.5442 165.151 29.8732 163.68 29.8732ZM163.68 27.1723C165.096 27.1723 166.152 26.697 166.847 25.7465C167.55 24.7868 167.902 23.5529 167.902 22.0448C167.902 20.5001 167.546 19.2662 166.833 18.343C166.129 17.4107 165.078 16.9446 163.68 16.9446C162.72 16.9446 161.929 17.164 161.308 17.6027C160.686 18.0323 160.225 18.6309 159.923 19.3987C159.621 20.1573 159.471 21.0394 159.471 22.0448C159.471 23.5986 159.827 24.8416 160.54 25.7739C161.253 26.7062 162.299 27.1723 163.68 27.1723ZM173.441 29.4619L173.455 9.71939H176.361V21.7843L182.174 14.655H185.821L179.679 22.0585L186.452 29.4619H182.558L176.361 22.3327V29.4619H173.441ZM193.629 29.8732C192.158 29.8732 190.864 29.5533 189.749 28.9135C188.643 28.2646 187.78 27.3643 187.158 26.2126C186.546 25.0518 186.24 23.7082 186.24 22.1819C186.24 20.5641 186.541 19.1611 187.144 17.9729C187.757 16.7847 188.607 15.8661 189.695 15.2171C190.782 14.5682 192.048 14.2437 193.492 14.2437C195 14.2437 196.285 14.5956 197.345 15.2994C198.405 15.994 199.196 16.9857 199.717 18.2745C200.247 19.5632 200.457 21.0942 200.347 22.8674H197.482V21.8254C197.464 20.1071 197.135 18.8366 196.495 18.014C195.864 17.1914 194.9 16.7801 193.602 16.7801C192.167 16.7801 191.088 17.2325 190.366 18.1374C189.644 19.0422 189.283 20.3493 189.283 22.0585C189.283 23.6854 189.644 24.9467 190.366 25.8425C191.088 26.729 192.13 27.1723 193.492 27.1723C194.388 27.1723 195.16 26.9712 195.809 26.5691C196.467 26.1578 196.979 25.5728 197.345 24.8142L200.155 25.7054C199.58 27.0307 198.707 28.0589 197.537 28.7901C196.367 29.5122 195.064 29.8732 193.629 29.8732ZM188.351 22.8674V20.6326H198.921V22.8674H188.351ZM212.91 29.4619V22.1819C212.91 21.606 212.859 21.0165 212.759 20.4133C212.668 19.8009 212.485 19.2342 212.211 18.7132C211.945 18.1922 211.566 17.7718 211.073 17.4519C210.588 17.132 209.953 16.972 209.167 16.972C208.655 16.972 208.171 17.0589 207.714 17.2325C207.257 17.397 206.854 17.6667 206.507 18.0414C206.169 18.4162 205.899 18.9097 205.698 19.5221C205.506 20.1345 205.41 20.8794 205.41 21.7568L203.628 21.0851C203.628 19.7415 203.879 18.5578 204.382 17.5341C204.885 16.5013 205.607 15.697 206.548 15.1212C207.49 14.5453 208.628 14.2574 209.962 14.2574C210.986 14.2574 211.845 14.4219 212.54 14.751C213.234 15.08 213.796 15.5142 214.226 16.0535C214.665 16.5836 214.998 17.164 215.227 17.7946C215.455 18.4253 215.611 19.0422 215.693 19.6455C215.775 20.2487 215.816 20.7789 215.816 21.2359V29.4619H212.91ZM202.504 29.4619V14.655H205.068V18.9326H205.41V29.4619H202.504Z" fill="#696CFF"/>
<path d="M38.1432 28.5357C38.1432 28.9187 37.9356 29.2716 37.6007 29.4576L24.0225 37.0011C23.704 37.1781 23.3167 37.1781 22.9981 37.0011L9.41989 29.4576C9.08509 29.2716 8.87744 28.9187 8.87744 28.5357V13.5181C8.87744 13.1351 9.08509 12.7822 9.41989 12.5962L22.9982 5.05268C23.3167 4.87572 23.704 4.87572 24.0225 5.05268L37.6007 12.5962C37.9356 12.7822 38.1432 13.1351 38.1432 13.5181V28.5357ZM22.9985 33.2784C23.3169 33.455 23.7038 33.455 24.0221 33.2784L31.4575 29.1518C32.1813 28.7501 32.1813 27.7091 31.4573 27.3075L28.9352 25.9082C28.5168 25.676 27.9998 25.7619 27.6285 26.0638C26.5057 26.9768 25.0714 27.5304 23.5103 27.5304C21.9492 27.5304 20.515 26.9768 19.3922 26.0638C19.0209 25.7619 18.5038 25.676 18.0854 25.9082L15.5633 27.3075C14.8394 27.7091 14.8393 28.7501 15.5632 29.1518L22.9985 33.2784ZM21.8844 11.1771C21.8844 10.3732 21.021 9.86485 20.318 10.255L12.672 14.4985C12.337 14.6845 12.1292 15.0375 12.1292 15.4206V23.6889C12.1292 24.4931 12.9933 25.0014 13.6962 24.6107L16.4834 23.0612C16.9133 22.8222 17.1123 22.3177 17.0533 21.8294C17.0217 21.568 17.0068 21.2993 17.0068 21.0269C17.0068 18.2898 18.6983 15.939 21.1047 14.987C21.5532 14.8096 21.8844 14.3971 21.8844 13.9148V11.1771ZM20.2586 21.0269C20.2586 22.8154 21.7219 24.2786 23.5103 24.2786C25.2988 24.2786 26.7621 22.8154 26.7621 21.0269C26.7621 19.2384 25.2988 17.7751 23.5103 17.7751C21.7219 17.7751 20.2586 19.2384 20.2586 21.0269ZM26.7026 10.255C25.9997 9.86485 25.1362 10.3732 25.1362 11.1771V13.8985C25.1362 14.3809 25.4674 14.7933 25.9159 14.9707C28.3224 15.9228 30.0138 18.2736 30.0138 21.0106C30.0138 21.2904 29.9981 21.5661 29.9647 21.8361C29.9048 22.3209 30.1039 22.8203 30.5309 23.0577L33.3244 24.6107C34.0273 25.0014 34.8914 24.4931 34.8914 23.6889V15.4206C34.8914 15.0375 34.6836 14.6845 34.3486 14.4985L26.7026 10.255Z" fill="#696CFF"/>
</g>
<defs>
<filter id="filter0_d_35_440" x="0" y="1.5166" width="219.816" height="47.021" filterUnits="userSpaceOnUse" color-interpolation-filters="sRGB">
<feFlood flood-opacity="0" result="BackgroundImageFix"/>
<feColorMatrix in="SourceAlpha" type="matrix" values="0 0 0 0 0 0 0 0 0 0 0 0 0 0 0 0 0 0 127 0" result="hardAlpha"/>
<feOffset dy="4"/>
<feGaussianBlur stdDeviation="2"/>
<feComposite in2="hardAlpha" operator="out"/>
<feColorMatrix type="matrix" values="0 0 0 0 0 0 0 0 0 0 0 0 0 0 0 0 0 0 0.25 0"/>
<feBlend mode="normal" in2="BackgroundImageFix" result="effect1_dropShadow_35_440"/>
<feBlend mode="normal" in="SourceGraphic" in2="effect1_dropShadow_35_440" result="shape"/>
</filter>
</defs>
</svg>
