<svg width="248" height="88" viewBox="0 0 248 88" fill="none" xmlns="http://www.w3.org/2000/svg">
<g clip-path="url(#clip0_35_380)">
<path fill-rule="evenodd" clip-rule="evenodd" d="M57.7887 55.7519V52.3797H72.9637V55.7519H57.7887ZM69.7404 38.8908H61.0106L65.3762 44.9327L69.7404 38.8908ZM76.3359 35.5186L65.3762 50.6936L54.4165 35.5186H76.3359Z" fill="#232323"/>
<path d="M89.7112 52.381V46.9686H84.5207V52.381H81.3916V38.8921H84.5207V44.171H89.7112V38.8893H92.8403V52.3782L89.7112 52.381Z" fill="#232323"/>
<path d="M96.7885 52.3811V38.8922H105.336V41.76H99.9177V44.1711H104.851V46.8956H99.9177V49.5273H105.336V52.3811H96.7885Z" fill="#232323"/>
<path d="M109.063 52.3811V38.8922H112.191V49.5301H117.604V52.3839L109.063 52.3811Z" fill="#232323"/>
<path d="M120.23 52.3811V38.8922H123.363V49.5301H128.774V52.3839L120.23 52.3811Z" fill="#232323"/>
<path d="M137.601 52.6017C133.422 52.6017 130.754 49.6018 130.754 45.6437C130.754 41.6855 133.551 38.6674 137.73 38.6674C141.909 38.6674 144.577 41.6686 144.577 45.6437C144.577 49.6187 141.761 52.6017 137.601 52.6017ZM137.653 41.4663C135.518 41.4663 134.082 43.2142 134.082 45.6437C134.082 48.0731 135.518 49.8224 137.653 49.8224C139.787 49.8224 141.224 48.0548 141.224 45.6437C141.224 43.2325 139.791 41.4663 137.653 41.4663Z" fill="#232323"/>
<path d="M151.338 52.6017C149.811 52.6017 147.966 51.9947 146.793 51.2205L147.657 48.3864C148.743 49.1775 150.161 49.6931 151.431 49.6931C152.535 49.6931 152.958 49.1775 152.958 48.5157C152.958 47.8131 152.609 47.3368 150.547 46.5092C148.173 45.5523 147.348 44.1711 147.348 42.551C147.348 40.5839 148.948 38.6674 152.096 38.6674C153.568 38.6674 155.079 39.183 155.87 39.717L155.076 42.5145C154.302 41.9806 153.051 41.4101 152.093 41.4101C150.952 41.4101 150.492 41.944 150.492 42.4962C150.492 43.38 151.173 43.6751 152.867 44.3917C155.388 45.4596 156.142 46.675 156.142 48.4047C156.142 50.5587 154.578 52.6017 151.338 52.6017Z" fill="#232323"/>
<path d="M159.498 52.3811V38.8922H162.627V52.3811H159.498Z" fill="#232323"/>
<path d="M178.226 44.7978V51.2401C176.679 52.1583 174.908 52.6296 173.109 52.6017C169.152 52.6017 166.023 49.7676 166.023 45.6436C166.023 41.5197 169.189 38.6674 173.275 38.6674C175.042 38.6674 176.459 39.1282 177.802 39.828L176.495 42.3487C175.566 41.8595 174.533 41.6007 173.483 41.5942C170.795 41.5942 169.36 43.269 169.36 45.6436C169.36 48.2206 171.09 49.8224 173.294 49.8224C174.288 49.8224 174.785 49.7114 175.283 49.4543V47.4661H172.575V44.7964L178.226 44.7978Z" fill="#232323"/>
<path d="M193.086 52.6382L184.951 45.3317V52.3811H181.822V38.7053L182.243 38.6309L190.269 45.8825V38.8894H193.398V52.5834L193.086 52.6382Z" fill="#232323"/>
</g>
<defs>
<clipPath id="clip0_35_380">
<rect width="139.167" height="40" fill="white" transform="translate(54.4165 24)"/>
</clipPath>
</defs>
</svg>
