<svg width="248" height="88" viewBox="0 0 248 88" fill="none" xmlns="http://www.w3.org/2000/svg">
<g clip-path="url(#clip0_35_408)">
<path fill-rule="evenodd" clip-rule="evenodd" d="M102.919 49.1399C102.919 49.7332 102.484 50.221 101.865 50.221C101.263 50.221 100.828 49.7321 100.828 49.1399V38.8321C100.828 38.2388 101.263 37.751 101.882 37.751C102.484 37.751 102.919 38.2399 102.919 38.8321V49.1399Z" fill="#232323"/>
<path fill-rule="evenodd" clip-rule="evenodd" d="M116.432 38.8321V48.2509C116.432 49.5243 115.78 50.2398 114.743 50.2398H114.66C113.674 50.2398 113.205 49.6465 112.787 48.7742L110.68 44.501L108.806 40.0887L108.857 44.3621L108.874 49.1232C108.874 49.7165 108.439 50.2043 107.82 50.2043C107.218 50.2043 106.783 49.7154 106.783 49.1232V39.7043C106.783 38.5354 107.435 37.7154 108.573 37.7154H108.657C109.71 37.7154 110.145 38.3088 110.563 39.181L112.637 43.4198L114.41 47.5365L114.36 43.5943L114.343 38.8332C114.343 38.2399 114.777 37.7521 115.397 37.7521C115.997 37.751 116.432 38.2388 116.432 38.8321Z" fill="#232323"/>
<path fill-rule="evenodd" clip-rule="evenodd" d="M124.812 49.1232C124.812 49.7165 124.377 50.2043 123.758 50.2043C123.157 50.2043 122.722 49.7154 122.722 49.1232V39.7921H120.129C119.595 39.7921 119.16 39.3732 119.16 38.7632C119.16 38.1699 119.595 37.7521 120.129 37.7521H127.404C127.939 37.7521 128.374 38.171 128.374 38.781C128.374 39.3744 127.939 39.7921 127.404 39.7921H124.812V49.1232Z" fill="#232323"/>
<path fill-rule="evenodd" clip-rule="evenodd" d="M131.1 48.7744V39.0944C131.1 38.1878 131.585 37.6822 132.472 37.7167H138.493C139.027 37.7167 139.462 38.1522 139.462 38.7456C139.462 39.3389 139.027 39.7566 138.493 39.7566H133.174V42.7566H137.873C138.392 42.7566 138.81 43.1577 138.81 43.7333C138.81 44.3089 138.392 44.71 137.873 44.71H133.174V48.1633H138.493C139.027 48.1633 139.462 48.5989 139.462 49.1922C139.462 49.7855 139.027 50.2033 138.493 50.2033H132.421C131.552 50.2044 131.068 49.6988 131.1 48.7744Z" fill="#232323"/>
<path fill-rule="evenodd" clip-rule="evenodd" d="M150.853 50.2566C151.438 49.9422 151.622 49.2966 151.337 48.7911L149.247 44.92C150.97 44.5711 151.973 43.2455 151.973 41.4489C151.973 39.5655 150.837 37.7167 148.11 37.7167H144.147C143.26 37.6822 142.775 38.1878 142.775 39.0944V49.1411C142.775 49.7333 143.21 50.2222 143.812 50.2222C144.431 50.2222 144.866 49.7344 144.866 49.1411L144.849 45.3388H147.056L149.381 49.8211C149.664 50.3266 150.284 50.5533 150.853 50.2566ZM148.159 43.3667H144.847V39.7556H148.142C149.246 39.7556 149.865 40.4878 149.865 41.5522C149.865 42.6166 149.28 43.3667 148.159 43.3667Z" fill="#232323"/>
<path fill-rule="evenodd" clip-rule="evenodd" d="M156.287 49.2799C155.033 48.111 154.465 46.2799 154.465 43.9777C154.465 41.6577 155.017 39.8443 156.255 38.6932C157.024 37.9955 158.06 37.5244 159.566 37.5244C160.887 37.5244 161.908 37.8388 162.677 38.5188C163.346 39.0766 163.831 39.8621 164.115 40.961C164.265 41.5366 163.881 42.1121 163.246 42.2343C162.644 42.3388 162.159 41.9377 161.975 41.3621C161.774 40.8044 161.506 40.4032 161.189 40.1232C160.754 39.7221 160.219 39.5477 159.516 39.5477C158.763 39.5477 158.111 39.7744 157.626 40.2799C156.923 41.0121 156.622 42.321 156.622 43.9777C156.622 45.6176 156.907 46.9254 157.643 47.6577C158.127 48.1632 158.763 48.3899 159.499 48.3899C160.268 48.3899 160.853 48.181 161.339 47.7099C161.589 47.4655 161.808 47.1521 161.958 46.7854C162.175 46.2443 162.627 45.8432 163.212 45.9832C163.797 46.1232 164.166 46.7154 163.981 47.291C163.68 48.2499 163.162 49.0177 162.459 49.541C161.69 50.1165 160.737 50.4132 159.533 50.4132C157.994 50.4132 157.024 49.9421 156.287 49.2799Z" fill="#232323"/>
<path fill-rule="evenodd" clip-rule="evenodd" d="M171.641 37.5244C168.012 37.5244 166.473 40.071 166.473 43.9777C166.473 48.0065 167.996 50.431 171.641 50.431C175.22 50.431 176.793 48.0065 176.793 43.9777C176.793 40.001 175.237 37.5244 171.641 37.5244ZM171.624 39.5655C173.615 39.5655 174.651 41.0121 174.651 43.9777C174.651 46.9421 173.598 48.3899 171.624 48.3899C169.634 48.3899 168.63 46.9432 168.63 43.9777C168.63 41.0133 169.667 39.5655 171.624 39.5655Z" fill="#232323"/>
<path fill-rule="evenodd" clip-rule="evenodd" d="M193.016 49.1231C193.016 49.7165 192.581 50.2043 191.962 50.2043C191.36 50.2043 190.925 49.7154 190.925 49.1231V44.4487L190.976 39.8965L189.52 44.5187L188.049 49.0709C187.799 49.8732 187.28 50.1876 186.627 50.1876C185.941 50.1876 185.44 49.8565 185.172 49.0543L183.667 44.5199L182.278 39.9676L182.328 44.4499V49.1243C182.328 49.7176 181.893 50.2054 181.275 50.2054C180.673 50.2054 180.238 49.7165 180.238 49.1243V39.7932C180.238 38.5021 180.907 37.7521 182.078 37.7521C183.182 37.7521 183.801 38.3621 184.151 39.4788L185.69 44.2399L186.626 47.4843L187.58 44.2399L189.118 39.4788C189.47 38.3621 190.072 37.7521 191.176 37.7521C192.347 37.7521 192.999 38.4843 192.999 39.7932L193.016 49.1231Z" fill="#232323"/>
<path d="M83.9481 45.7597C83.9481 46.0717 83.8286 46.3709 83.6159 46.5916C83.4032 46.8121 83.1146 46.9361 82.8138 46.9361C82.5129 46.9361 82.2244 46.8121 82.0116 46.5916C81.7989 46.3709 81.6794 46.0717 81.6794 45.7597V35.2501C81.6794 34.9381 81.7989 34.6388 82.0116 34.4182C82.2244 34.1976 82.5129 34.0736 82.8138 34.0736C83.1146 34.0736 83.4032 34.1976 83.6159 34.4182C83.8286 34.6388 83.9481 34.9381 83.9481 35.2501V45.7597ZM83.5544 53.0416C83.4044 53.1972 79.1856 56.843 71.4511 56.843C63.7166 56.843 59.526 53.2166 59.3478 53.0611C59.2356 52.9629 59.1431 52.8428 59.0757 52.7075C59.0083 52.5721 58.9674 52.4244 58.9552 52.2727C58.943 52.1209 58.9598 51.9682 59.0047 51.8232C59.0495 51.6782 59.1215 51.5438 59.2166 51.4277C59.4124 51.1928 59.6898 51.0477 59.9883 51.024C60.2869 51.0003 60.5824 51.1001 60.8103 51.3014C60.876 51.35 64.6448 54.5194 71.4417 54.5194C78.2387 54.5194 82.0356 51.3305 82.0731 51.3014C82.3036 51.1019 82.6001 51.0035 82.8995 51.0271C83.1988 51.0506 83.4775 51.1944 83.6763 51.4277C83.8676 51.6592 83.963 51.9595 83.9419 52.2635C83.9209 52.5676 83.785 52.8507 83.5638 53.0514L83.5544 53.0416ZM58.9447 35.2501C58.9616 34.9371 59.0974 34.6438 59.3223 34.4342C59.5471 34.2248 59.8428 34.1161 60.1447 34.132C60.4246 34.1485 60.6887 34.2718 60.886 34.4783C61.0834 34.6847 61.2 34.9597 61.2135 35.2501V45.7403C61.2135 46.0523 61.094 46.3515 60.8812 46.5721C60.6685 46.7927 60.38 46.9166 60.0791 46.9166C59.7782 46.9166 59.4897 46.7927 59.277 46.5721C59.0642 46.3515 58.9447 46.0523 58.9447 45.7403V35.2501ZM64.6354 32.9167C64.6524 32.6037 64.7881 32.3104 65.013 32.1009C65.2378 31.8914 65.5335 31.7827 65.8354 31.7987C66.1153 31.8151 66.3794 31.9385 66.5767 32.145C66.7741 32.3514 66.8907 32.6263 66.9042 32.9167V48.4722C66.9042 48.7842 66.7847 49.0834 66.5719 49.304C66.3592 49.5246 66.0707 49.6486 65.7698 49.6486C65.4689 49.6486 65.1804 49.5246 64.9676 49.304C64.7549 49.0834 64.6354 48.7842 64.6354 48.4722V32.9167ZM70.3542 32.3334C70.3542 32.0214 70.4737 31.7222 70.6865 31.5016C70.8992 31.2809 71.1878 31.157 71.4886 31.157C71.7895 31.157 72.078 31.2809 72.2907 31.5016C72.5035 31.7222 72.623 32.0214 72.623 32.3334V49.25C72.623 49.562 72.5035 49.8612 72.2907 50.0818C72.078 50.3024 71.7895 50.4264 71.4886 50.4264C71.1878 50.4264 70.8992 50.3024 70.6865 50.0818C70.4737 49.8612 70.3542 49.562 70.3542 49.25V32.3334ZM75.9793 32.9167C75.9793 32.6047 76.0988 32.3055 76.3116 32.0849C76.5243 31.8643 76.8128 31.7403 77.1137 31.7403C77.4146 31.7403 77.7031 31.8643 77.9158 32.0849C78.1286 32.3055 78.2481 32.6047 78.2481 32.9167V48.4722C78.2481 48.7842 78.1286 49.0834 77.9158 49.304C77.7031 49.5246 77.4146 49.6486 77.1137 49.6486C76.8128 49.6486 76.5243 49.5246 76.3116 49.304C76.0988 49.0834 75.9793 48.7842 75.9793 48.4722V32.9167ZM84.2575 26.5001H58.6822C58.1249 26.4962 57.5724 26.6064 57.0562 26.8243C56.5401 27.0422 56.0705 27.3636 55.6742 27.7699C55.278 28.1764 54.9629 28.6598 54.7471 29.1926C54.5313 29.7254 54.419 30.2972 54.4165 30.8751V57.1249C54.419 57.7028 54.5313 58.2746 54.7471 58.8074C54.9629 59.3402 55.278 59.8237 55.6742 60.2301C56.0705 60.6364 56.5401 60.9578 57.0562 61.1757C57.5724 61.3936 58.1249 61.5036 58.6822 61.4999H84.2575C84.814 61.5036 85.3658 61.3939 85.8814 61.1766C86.3969 60.9593 86.8661 60.6388 87.2622 60.2335C87.6583 59.8281 87.9735 59.3458 88.1899 58.8142C88.4063 58.2824 88.5195 57.7118 88.5232 57.1347V30.8751C88.5208 30.298 88.4087 29.727 88.1935 29.1949C87.9783 28.6627 87.6641 28.1797 87.2688 27.7734C86.8736 27.3672 86.405 27.0456 85.89 26.8271C85.3749 26.6086 84.8234 26.4975 84.2669 26.5001" fill="#232323"/>
</g>
<defs>
<clipPath id="clip0_35_408">
<rect width="139.167" height="40" fill="white" transform="translate(54.4165 24)"/>
</clipPath>
</defs>
</svg>
