<svg width="248" height="88" viewBox="0 0 248 88" fill="none" xmlns="http://www.w3.org/2000/svg">
<g clip-path="url(#clip0_35_384)">
<path fill-rule="evenodd" clip-rule="evenodd" d="M66.8659 53.8768C64.156 51.1898 64.156 46.8335 66.866 44.1466L74.2264 36.8487C76.5172 34.5773 80.0114 34.226 82.6744 35.7949C83.4982 36.2801 83.4909 37.3933 82.8134 38.065C82.136 38.7367 81.03 38.6789 80.1104 38.4123C78.9328 38.0708 77.6085 38.3604 76.6798 39.2813L69.3194 46.5791C67.9644 47.9226 67.9644 50.1007 69.3194 51.4442C70.6744 52.7878 72.8713 52.7878 74.2263 51.4442L88.9469 36.8488C91.6569 34.1619 96.0506 34.1619 98.7606 36.8488L106.121 44.1466C108.831 46.8334 108.831 51.1898 106.121 53.8768C103.411 56.5637 99.0174 56.5637 96.3073 53.8768L93.8539 51.4442L90.7871 54.485C88.4962 56.7564 85.0021 57.1076 82.339 55.5388C81.5153 55.0536 81.5225 53.9404 82.2 53.2687C82.8775 52.5969 83.9834 52.6547 84.9031 52.9214C86.0806 53.2629 87.4049 52.9732 88.3336 52.0524L91.4881 48.9248C92.7947 47.6293 94.9131 47.6293 96.2197 48.9248L98.7608 51.4442C100.116 52.7877 102.313 52.7877 103.668 51.4442C105.023 50.1007 105.023 47.9226 103.668 46.5791L96.3071 39.2814C94.9521 37.9379 92.7553 37.9379 91.4003 39.2814L76.6797 53.8769C73.9697 56.5638 69.5759 56.5638 66.8659 53.8768Z" fill="#232323"/>
<path d="M135.871 38.7331C134.166 38.7331 132.874 39.3437 132.021 40.565C131.272 39.3437 130.084 38.7331 128.508 38.7331C126.88 38.7331 125.691 39.2929 124.916 40.4377V39.0893H121.583V51.8103H124.916V44.6611C124.916 42.8038 125.872 41.7862 127.345 41.7862C128.714 41.7862 129.515 42.6766 129.515 44.2032V51.8103H132.848V44.6611C132.848 42.8038 133.727 41.7862 135.251 41.7862C136.62 41.7862 137.421 42.6766 137.421 44.2032V51.8103H140.754V43.9741C140.754 40.7939 138.842 38.7331 135.871 38.7331Z" fill="#232323"/>
<path d="M153.144 40.5904C152.137 39.3437 150.741 38.7331 148.933 38.7331C147.202 38.7331 145.729 39.3946 144.489 40.6922C143.275 41.9897 142.655 43.5671 142.655 45.4498C142.655 47.3325 143.275 48.9354 144.489 50.2329C145.729 51.5304 147.202 52.1665 148.933 52.1665C150.741 52.1665 152.137 51.5558 153.144 50.3092V51.8102H156.477V39.0893H153.144V40.5904ZM146.995 48.0449C146.323 47.3579 145.987 46.4929 145.987 45.4498C145.987 44.4067 146.323 43.5417 146.995 42.8802C147.667 42.1932 148.519 41.8625 149.553 41.8625C150.586 41.8625 151.439 42.1932 152.111 42.8802C152.808 43.5417 153.144 44.4067 153.144 45.4498C153.144 46.4929 152.808 47.3579 152.111 48.0449C151.439 48.7064 150.586 49.0371 149.553 49.0371C148.519 49.0371 147.667 48.7064 146.995 48.0449Z" fill="#232323"/>
<path d="M168.775 41.2773V39.0893H159.086V42.1677H164.279L158.827 49.6222V51.8102H169.033V48.7317H163.297L168.775 41.2773Z" fill="#232323"/>
<path d="M182.968 46.7982C183.046 46.3149 183.097 45.8823 183.097 45.4498C183.097 43.5417 182.478 41.9643 181.238 40.6667C180.023 39.3692 178.447 38.7331 176.561 38.7331C174.572 38.7331 172.919 39.3692 171.652 40.6667C170.386 41.9388 169.74 43.5417 169.74 45.4498C169.74 47.3834 170.386 48.9863 171.678 50.2583C172.97 51.5304 174.675 52.1665 176.819 52.1665C179.299 52.1665 181.186 51.2505 182.452 49.4442L179.765 47.9177C179.119 48.7572 178.138 49.1898 176.871 49.1898C174.882 49.1898 173.668 48.4011 173.228 46.7982H182.968ZM173.177 44.254C173.564 42.6257 174.778 41.6844 176.561 41.6844C178.085 41.6844 179.377 42.524 179.765 44.254H173.177Z" fill="#232323"/>
</g>
<defs>
<clipPath id="clip0_35_384">
<rect width="118.333" height="40" fill="white" transform="translate(64.8335 24)"/>
</clipPath>
</defs>
</svg>
