<svg width="20" height="21" viewBox="0 0 20 21" fill="none" xmlns="http://www.w3.org/2000/svg">
<path d="M10.1969 9.29963C10.1152 9.29146 10.0173 9.29146 9.92746 9.29963C7.98441 9.23432 6.44141 7.64232 6.44141 5.68295C6.44141 3.68275 8.05789 2.05811 10.0663 2.05811C12.0664 2.05811 13.6911 3.68275 13.6911 5.68295C13.6829 7.64232 12.1399 9.23432 10.1969 9.29963Z" stroke="#696CFF" stroke-width="1.22461" stroke-linecap="round" stroke-linejoin="round"/>
<path d="M6.11557 12.3119C4.13986 13.6345 4.13986 15.7898 6.11557 17.1042C8.36068 18.6064 12.0427 18.6064 14.2878 17.1042C16.2635 15.7816 16.2635 13.6263 14.2878 12.3119C12.0508 10.8179 8.36885 10.8179 6.11557 12.3119Z" stroke="#696CFF" stroke-width="1.22461" stroke-linecap="round" stroke-linejoin="round"/>
</svg>
