<svg width="248" height="88" viewBox="0 0 248 88" fill="none" xmlns="http://www.w3.org/2000/svg">
<g clip-path="url(#clip0_35_411)">
<path fill-rule="evenodd" clip-rule="evenodd" d="M79.903 44.5157C79.903 38.7596 78.9368 36.3735 76.2807 36.3735C73.938 36.3735 72.7547 38.0463 72.7547 43.8517C72.7547 49.583 73.6724 51.9447 76.3772 51.9447C78.7679 51.9447 79.903 50.2964 79.903 44.5157ZM68.1665 44.3683C68.1665 37.8986 72.5374 35.3405 76.4257 35.3405C80.5792 35.3405 84.4912 37.8742 84.4912 43.9746C84.4912 50.4932 80.1203 52.9778 76.2321 52.9778C72.0787 52.9778 68.1665 50.272 68.1665 44.3683Z" fill="#232323"/>
<path fill-rule="evenodd" clip-rule="evenodd" d="M104.159 44.7863L108.289 44.5649C108.289 41.5886 107.903 40.5061 106.454 40.5061C105.222 40.5061 104.256 41.6869 104.159 44.7863ZM100.344 46.2377C100.344 41.9575 103.459 39.5714 106.647 39.5714C109.94 39.5714 112.007 41.229 112.125 45.5657C112.127 45.65 112.06 45.7211 111.977 45.7211H104.311C104.228 45.7211 104.161 45.7922 104.163 45.8767C104.271 49.7841 105.761 50.8624 108.216 50.8624C109.415 50.8624 110.381 50.5787 111.189 50.2135C111.249 50.1864 111.318 50.2023 111.36 50.253L111.682 50.6377C111.73 50.6958 111.729 50.7816 111.678 50.8368C110.797 51.7831 109.004 52.9779 106.647 52.9779C102.445 52.9779 100.344 50.4195 100.344 46.2377Z" fill="#232323"/>
<path fill-rule="evenodd" clip-rule="evenodd" d="M150.072 46.4345C150.072 41.4655 149.13 40.5307 147.488 40.5307C145.966 40.5307 145.073 41.6623 145.073 45.8934C145.073 50.9363 145.87 52.0184 147.633 52.0184C149.082 52.0184 150.072 51.1575 150.072 46.4345ZM141.016 46.3116C141.016 41.5884 144.3 39.5714 147.56 39.5714C151.062 39.5714 154.129 41.7115 154.129 46.1885C154.129 50.9115 150.893 52.9781 147.56 52.9781C144.059 52.9781 141.016 50.813 141.016 46.3116Z" fill="#232323"/>
<path fill-rule="evenodd" clip-rule="evenodd" d="M164.476 46.4345C164.476 41.4655 163.534 40.5307 161.892 40.5307C160.37 40.5307 159.477 41.6623 159.477 45.8934C159.477 50.9363 160.274 52.0184 162.037 52.0184C163.486 52.0184 164.476 51.1575 164.476 46.4345ZM155.42 46.3116C155.42 41.5884 158.704 39.5714 161.964 39.5714C165.466 39.5714 168.533 41.7115 168.533 46.1885C168.533 50.9115 165.297 52.9781 161.964 52.9781C158.463 52.9781 155.42 50.813 155.42 46.3116Z" fill="#232323"/>
<path fill-rule="evenodd" clip-rule="evenodd" d="M122.052 39.5714C120.29 39.5714 118.696 40.3833 117.416 41.3178H117.319L117.367 39.7669C117.37 39.648 117.27 39.5536 117.154 39.5669L113.775 39.9571C113.675 39.9684 113.6 40.0539 113.6 40.1558V52.4876C113.6 52.5954 113.686 52.6826 113.792 52.6826H117.248C117.354 52.6826 117.44 52.5954 117.44 52.4876V42.1789C117.971 42.0558 118.841 41.8592 119.686 41.8592C120.821 41.8592 121.352 42.3265 121.352 43.827V52.4876C121.352 52.5954 121.438 52.6826 121.544 52.6826H125.025C125.13 52.6826 125.216 52.5954 125.216 52.4876V42.8679C125.216 40.6538 124.105 39.5714 122.052 39.5714Z" fill="#232323"/>
<path fill-rule="evenodd" clip-rule="evenodd" d="M135.576 50.4933C135.19 50.641 134.538 51.0346 133.548 51.0346C131.712 51.0346 130.747 49.7799 130.747 45.9179C130.747 41.859 131.954 40.5553 133.693 40.5553C134.586 40.5553 135.166 41.0718 135.576 41.5884V50.4933ZM139.416 37.1607C139.416 35.8892 139.459 34.7209 139.481 34.2414C139.488 34.1012 139.371 33.9885 139.233 34.0009L135.755 34.4033C135.654 34.4126 135.576 34.499 135.576 34.6028V38.0463C135.576 38.9317 135.625 39.8419 135.625 39.8419C135.118 39.6943 134.441 39.5714 133.789 39.5714C130.022 39.5714 126.786 41.6132 126.786 46.7298C126.786 51.2067 129.128 52.9779 131.519 52.9779C133.21 52.9779 134.562 52.2891 135.601 51.3791H135.697L135.648 52.7368C135.642 52.8815 135.766 52.9958 135.907 52.9756L139.22 52.5988C139.333 52.5829 139.416 52.485 139.416 52.3694V37.1607Z" fill="#232323"/>
<path fill-rule="evenodd" clip-rule="evenodd" d="M177.508 39.5714C176.107 39.5714 174.731 40.6538 173.982 41.4655H173.885L173.932 39.8125C173.936 39.6718 173.817 39.5599 173.68 39.5756L170.341 39.9573C170.241 39.9686 170.166 40.0541 170.166 40.1562V52.4511C170.166 52.579 170.268 52.6826 170.394 52.6826H173.779C173.904 52.6826 174.006 52.579 174.006 52.4511V42.4742C174.344 42.1543 174.9 41.8344 175.334 41.8344C175.552 41.8344 175.697 41.8837 175.841 42.1543C176.3 42.9168 176.664 43.3575 177.701 43.3575C178.643 43.3575 179.485 42.5971 179.485 41.4164C179.485 40.2108 178.667 39.5714 177.508 39.5714Z" fill="#232323"/>
<path fill-rule="evenodd" clip-rule="evenodd" d="M92.0415 51.9939C91.2204 51.9939 90.5685 51.6248 90.1336 51.1082V42.1542C90.52 42.0067 91.1238 41.7114 92.0898 41.7114C93.9252 41.7114 94.9637 42.9413 94.9637 46.459C94.9637 50.9608 93.9493 51.9939 92.0415 51.9939ZM94.1908 39.5715C92.5002 39.5715 91.1482 40.3832 90.1336 41.2688H90.0129L90.0595 39.7968C90.0638 39.6628 89.9502 39.556 89.8195 39.5711L86.4684 39.957C86.3689 39.9685 86.2939 40.0542 86.2939 40.1561V57.968C86.2939 58.0873 86.3958 58.1803 86.5124 58.1669L89.9593 57.7702C90.0586 57.7588 90.1336 57.6732 90.1336 57.5713V54.2325C90.1336 53.3716 90.1096 52.732 90.1096 52.732C90.6409 52.8795 91.4379 52.9778 91.945 52.9778C95.9779 52.9778 98.924 50.7394 98.924 45.6227C98.924 41.1211 96.485 39.5715 94.1908 39.5715Z" fill="#232323"/>
</g>
<defs>
<clipPath id="clip0_35_411">
<rect width="111.667" height="40" fill="white" transform="translate(68.1665 24)"/>
</clipPath>
</defs>
</svg>
