<svg width="248" height="88" viewBox="0 0 248 88" fill="none" xmlns="http://www.w3.org/2000/svg">
<g clip-path="url(#clip0_35_404)">
<path d="M97.6043 49.0469C97.2085 49.1458 96.7137 49.2448 96.2189 49.2448C95.2293 49.2448 94.8335 48.651 94.8335 47.6615V43.2083H97.6043C98.297 43.2083 98.9897 42.7135 98.9897 41.9219C98.9897 41.1302 98.396 40.6354 97.6043 40.6354H94.8335V39.151C94.8335 38.2604 94.1408 37.6667 93.3491 37.6667C92.5575 37.6667 91.8647 38.3594 91.8647 39.151V47.7604C91.8647 50.2344 93.0522 52.0156 95.8231 52.0156C96.6147 52.0156 97.7033 51.9167 98.495 51.5208C99.1877 51.224 99.3856 50.7292 99.3856 50.2344C99.3856 49.5417 98.6929 48.849 97.6043 49.0469ZM107.5 40.2396C107.104 40.1406 106.313 40.0417 105.62 40.0417C103.146 40.0417 101.761 41.526 101.761 43.8021V50.5312C101.761 51.3229 102.453 52.0156 103.245 52.0156C104.037 52.0156 104.729 51.3229 104.729 50.5312V44.3958C104.729 43.4062 105.125 43.0104 105.818 43.0104C106.511 43.0104 106.906 43.2083 107.5 43.2083C108.391 43.2083 108.886 42.4167 108.886 41.8229C108.787 41.0313 108.391 40.5365 107.5 40.2396ZM115.714 40.0417C112.943 40.0417 110.964 41.8229 110.667 44.6927C110.667 45.3854 110.568 46.5729 110.667 47.4635C110.865 50.2344 112.844 52.1146 115.813 52.1146C117.198 52.1146 118.485 51.8177 119.276 51.3229C119.87 50.9271 119.969 50.5313 119.969 50.1354C119.969 49.3438 119.276 48.5521 118.089 48.9479C117.396 49.2448 116.604 49.4427 115.813 49.4427C114.427 49.4427 113.339 48.75 113.339 47.3646V47.0677H118.979C119.969 47.0677 120.464 46.474 120.464 45.5833V45.0885C120.563 42.0208 118.583 40.0417 115.714 40.0417ZM117.594 45.0885H113.438C113.438 43.6042 114.13 42.6146 115.714 42.6146C117.099 42.6146 117.891 43.5052 117.792 44.7917C117.792 44.9896 117.792 45.0885 117.594 45.0885ZM127.589 40.0417C124.818 40.0417 122.839 41.8229 122.542 44.6927C122.542 45.3854 122.443 46.5729 122.542 47.4635C122.74 50.2344 124.719 52.1146 127.688 52.1146C129.073 52.1146 130.36 51.8177 131.151 51.3229C131.745 50.9271 131.844 50.5313 131.844 50.1354C131.844 49.3438 131.151 48.5521 129.964 48.9479C129.271 49.2448 128.479 49.4427 127.688 49.4427C126.302 49.4427 125.214 48.75 125.214 47.3646V47.0677H130.854C131.844 47.0677 132.339 46.474 132.339 45.5833V45.0885C132.438 42.0208 130.458 40.0417 127.589 40.0417ZM129.469 45.0885H125.313C125.313 43.6042 126.005 42.6146 127.589 42.6146C128.974 42.6146 129.766 43.5052 129.667 44.7917C129.667 44.9896 129.667 45.0885 129.469 45.0885ZM177.563 44.9896L175.979 44.5938C174.99 44.3958 174.693 44.099 174.693 43.6042C174.693 43.1094 175.188 42.7135 176.276 42.7135C176.87 42.7135 177.563 42.9115 178.156 43.2083C178.849 43.6042 179.641 43.5052 180.037 43.0104C180.531 42.5156 180.531 41.625 179.938 41.0312C179.146 40.4375 177.761 40.0417 176.375 40.0417C173.802 40.0417 171.922 41.3281 171.922 43.7031C171.922 45.5833 173.307 46.5729 175.089 47.0677C175.979 47.2656 175.88 47.2656 176.672 47.4635C177.563 47.6615 177.958 48.0573 177.958 48.4531C177.958 49.0469 177.464 49.4427 176.276 49.4427C175.287 49.4427 174.396 49.1458 173.703 48.75C173.011 48.2552 172.219 48.4531 171.823 49.0469C171.427 49.6406 171.526 50.4323 172.12 50.8281C172.912 51.5208 174.198 52.1146 176.276 52.1146C178.849 52.1146 180.828 50.7292 180.828 48.3542C180.828 46.5729 179.74 45.4844 177.563 44.9896ZM191.318 47.0677C192.307 47.0677 192.802 46.474 192.802 45.5833V45.0885C192.802 42.0208 190.823 40.0417 187.953 40.0417C185.182 40.0417 183.203 41.8229 182.906 44.6927C182.906 45.3854 182.807 46.5729 182.906 47.4635C183.104 50.2344 185.083 52.1146 188.052 52.1146C189.438 52.1146 190.724 51.8177 191.516 51.3229C192.11 50.9271 192.208 50.5313 192.208 50.1354C192.208 49.3438 191.516 48.5521 190.328 48.9479C189.636 49.2448 188.844 49.4427 188.052 49.4427C186.667 49.4427 185.578 48.75 185.578 47.3646V47.0677H191.318ZM187.953 42.6146C189.339 42.6146 190.13 43.5052 190.031 44.7917C190.031 44.9896 189.932 45.0885 189.833 45.0885H185.677C185.677 43.6042 186.469 42.6146 187.953 42.6146ZM151.735 40.0417C148.766 40.0417 146.589 41.9219 146.292 44.4948C146.193 45.3854 146.193 46.7708 146.292 47.6615C146.49 50.2344 148.766 52.1146 151.735 52.1146C154.703 52.1146 156.88 50.2344 157.078 47.6615C157.177 46.7708 157.177 45.4844 157.078 44.5938C156.88 41.9219 154.703 40.0417 151.735 40.0417ZM154.11 47.1667C154.011 48.4531 153.12 49.2448 151.735 49.2448C150.349 49.2448 149.458 48.3542 149.36 47.1667C149.36 46.5729 149.36 45.5833 149.36 44.9896C149.458 43.7031 150.349 42.9115 151.735 42.9115C153.12 42.9115 154.011 43.8021 154.11 44.9896C154.208 45.5833 154.208 46.5729 154.11 47.1667ZM139.958 40.0417C138.87 40.0417 137.682 40.4375 137.287 40.9323V37.7656C137.287 36.875 136.693 36.2812 135.901 36.2812C135.11 36.2812 134.516 36.974 134.516 37.7656V50.5312C134.516 51.3229 135.208 52.0156 136 52.0156C136.792 52.0156 137.386 51.3229 137.386 50.5312V43.901C137.88 43.4062 138.672 43.0104 139.662 43.0104C140.849 43.0104 141.542 43.7031 141.542 45.0885V50.5312C141.542 51.4219 142.136 52.1146 142.927 52.1146C143.818 52.1146 144.412 51.4219 144.412 50.5312V44.8906C144.313 41.724 142.729 40.0417 139.958 40.0417ZM167.667 40.1406C166.875 40.1406 166.182 40.8333 166.182 41.625V48.651C165.688 48.9479 164.995 49.2448 164.104 49.2448C162.917 49.2448 162.026 48.5521 162.026 47.1667V41.625C162.026 40.7344 161.333 40.0417 160.542 40.0417C159.651 40.0417 159.156 40.7344 159.156 41.625V47.2656C159.156 50.3333 160.938 52.0156 164.005 52.0156C166.281 52.0156 167.865 51.224 168.557 50.7292C168.953 50.5312 169.052 50.2344 169.052 49.7396V41.625C169.052 40.8333 168.458 40.1406 167.667 40.1406Z" fill="#232323"/>
<path d="M80.9792 34.0052C79.8906 33.4115 78.2083 34.401 77.2188 36.1823L75.3385 39.349C74.6458 40.6354 74.7448 42.2188 75.6354 43.5052L75.7344 43.6042C76.625 44.7917 77.7135 45.9792 78.1094 46.375C78.3073 46.5729 78.5052 46.8698 78.6042 47.2656C78.901 48.3542 78.3073 49.5417 77.1198 49.8385C76.0313 50.1354 74.8438 49.5417 74.5469 48.3542C74.4479 48.0573 74.4479 47.7604 74.4479 47.5625C74.5469 47.0677 74.349 46.375 73.6563 45.5833C72.9635 44.8906 71.6771 46.276 71.1823 47.6615V47.7604C70.7865 49.1458 70.4896 50.4323 70.5885 50.5313C70.5885 50.6302 70.6875 50.6302 70.6875 50.7292C71.2813 51.9167 70.8854 53.3021 69.6979 53.8958C68.5104 54.4896 67.125 54.0938 66.5312 52.9063C65.9375 51.7188 66.3333 50.3333 67.5208 49.7396C67.6198 49.7396 67.6198 49.6406 67.7188 49.6406C67.8177 49.6406 68.0156 49.0469 68.3125 48.2552C68.5104 47.5625 68.6094 47.2656 68.7083 46.9688C68.8073 46.5729 69.0052 45.5833 68.9063 45.1875C68.8073 44.6927 68.3125 44.6927 67.8177 44.9896C67.5208 45.1875 66.9271 45.6823 66.7292 45.8802C66.2344 46.276 65.8385 46.8698 65.6406 47.3646C65.5417 47.5625 65.3438 47.8594 65.1458 48.0573C64.2552 48.75 62.9688 48.651 62.1771 47.7604C61.4844 46.8698 61.5833 45.5833 62.474 44.7917C62.7708 44.5938 63.0677 44.3958 63.3646 44.3958C63.8594 44.2969 65.6406 43.2083 66.7292 42.4167C66.9271 42.3177 67.224 42.0208 67.3229 41.9219C67.6198 41.526 67.3229 41.2292 67.026 41.2292C66.1354 41.3281 65.1458 41.4271 64.9479 41.724C64.849 41.8229 64.75 42.0208 64.5521 42.1198C63.7604 42.7135 62.5729 42.5156 61.9792 41.724C61.3854 40.9323 61.5833 39.7448 62.375 39.151C62.6719 38.8542 63.1667 38.7552 63.4635 38.7552C64.1563 38.7552 65.9375 39.151 67.3229 38.8542L67.7188 38.7552C69.2031 38.4583 70.9844 37.1719 71.6771 35.8854C71.6771 35.8854 72.3698 34.6979 73.1615 33.2135C74.0521 31.7292 73.9531 30.0469 73.0625 29.5521L71.3802 28.5625C70.4896 28.0677 69.2031 28.0677 68.3125 28.5625L56.8333 35.0938C55.9427 35.5885 55.25 36.776 55.25 37.7656V50.4323C55.25 51.4219 55.9427 52.6094 56.8333 53.1042L68.3125 59.6354C69.2031 60.1302 70.5885 60.1302 71.3802 59.6354L82.8594 53.1042C83.75 52.6094 84.4427 51.4219 84.4427 50.4323V37.7656C84.4427 36.776 83.75 35.5885 82.8594 35.0938C82.8594 35.0938 82.0677 34.599 80.9792 34.0052Z" fill="#232323"/>
</g>
<defs>
<clipPath id="clip0_35_404">
<rect width="137.5" height="40" fill="white" transform="translate(55.25 24)"/>
</clipPath>
</defs>
</svg>
